<svg width="39" height="30" viewBox="0 0 39 30" fill="none" xmlns="http://www.w3.org/2000/svg">
<path d="M4.41379 28V7.46L19 2L34.5862 7.46V28H15.8793H11.0517H7.73276H4.41379Z" fill="##f26e3b"/>
<path d="M4.41379 7.46V28H7.73276H11.0517H15.8793H34.5862V7.46M4.41379 7.46H19.5H34.5862M4.41379 7.46L19 2L34.5862 7.46M4.41379 7.46L1.5 8.78261M34.5862 7.46L37.5 8.78261" stroke="##f26e3b" stroke-width="3"/>
<path d="M32 26.8696H7V22.3478V21.2174V15.5652V11.0435H32V15.5652V16.6957V21.2174V26.8696Z" fill="white"/>
<path d="M7 11.0435V26.8696C16.7631 26.8696 22.2369 26.8696 32 26.8696V11.0435M7 11.0435V15.5652C16.7631 15.5652 22.2369 15.5652 32 15.5652V11.0435M7 11.0435H32M7 21.2174C16.7631 21.2174 22.2369 21.2174 32 21.2174M7 16.6957C16.7631 16.6957 22.2369 16.6957 32 16.6957M7 22.3478C16.7631 22.3478 22.2369 22.3478 32 22.3478" stroke="##f26e3b"/>
<path d="M19 3.13043L32.8564 8.21739H5.14359L19 3.13043Z" fill="white"/>
</svg>
